<svg width="49" height="48" viewBox="0 0 49 48" fill="none" xmlns="http://www.w3.org/2000/svg">
<g clip-path="url(#clip0_6006_9859)">
<path d="M25.3079 37.1453C24.3119 37.1357 24.2311 35.6629 25.2279 35.5493C26.4808 35.4237 27.7093 35.1192 28.8759 34.6453C29.0722 34.5663 29.2918 34.5682 29.4866 34.6507C29.6815 34.7332 29.8357 34.8895 29.9156 35.0854C29.9955 35.2813 29.9945 35.5009 29.9128 35.6961C29.8312 35.8913 29.6755 36.0462 29.4799 36.1269C28.1474 36.6712 26.7414 37.0144 25.3079 37.1453ZM31.9695 34.6365C31.2271 34.6637 30.8679 33.6141 31.4975 33.1885C32.5093 32.4594 33.3919 31.566 34.1087 30.5453C34.1672 30.4555 34.2431 30.3784 34.332 30.3185C34.4209 30.2586 34.5209 30.2172 34.6261 30.1967C34.7313 30.1762 34.8395 30.177 34.9444 30.1992C35.0492 30.2213 35.1486 30.2643 35.2365 30.3256C35.3244 30.3869 35.3992 30.4652 35.4562 30.5559C35.5133 30.6466 35.5516 30.7479 35.5687 30.8537C35.5859 30.9595 35.5817 31.0676 35.5562 31.1717C35.5308 31.2758 35.4847 31.3738 35.4207 31.4597C34.6026 32.6271 33.5948 33.6493 32.4391 34.4837C32.3026 34.5827 32.1382 34.6368 31.9695 34.6365ZM36.1799 28.9469C35.6503 28.9549 35.2471 28.4109 35.4167 27.9053C35.6919 27.0365 35.8343 26.1269 35.8343 25.2157C35.8415 24.5309 35.5407 23.5293 36.4983 23.4013C36.9463 23.3669 37.3311 23.6757 37.3767 24.1149C37.5279 25.5541 37.3791 27.0109 36.9423 28.3885C36.8909 28.5505 36.7893 28.6918 36.6523 28.7922C36.5152 28.8926 36.3498 28.9468 36.1799 28.9469ZM35.7839 21.9077C35.6255 21.9079 35.4706 21.861 35.3388 21.7729C35.2071 21.6849 35.1044 21.5598 35.0439 21.4133C34.5585 20.2534 33.9063 19.1705 33.1079 18.1989C32.4479 17.3901 33.6759 16.3749 34.3439 17.1829C34.9695 17.9429 35.8543 19.1877 36.5223 20.8029C36.7471 21.3133 36.3383 21.9189 35.7839 21.9077ZM7.70232 21.2045C7.03832 21.2269 6.63832 20.3629 7.10392 19.8733C8.03083 18.8363 9.06214 17.8974 10.1815 17.0717C11.0239 16.4525 11.9727 17.7309 11.1343 18.3581C10.1037 19.1179 9.15412 19.982 8.30072 20.9365C8.22557 21.0212 8.13327 21.0888 8.02996 21.135C7.92665 21.1813 7.81469 21.2049 7.70151 21.2045H7.70232ZM13.3687 16.8173C13.1896 16.8174 13.0157 16.7573 12.8747 16.6468C12.7338 16.5362 12.6341 16.3816 12.5915 16.2076C12.5489 16.0336 12.5659 15.8504 12.6398 15.6872C12.7137 15.5241 12.8402 15.3905 12.9991 15.3077C14.2315 14.6657 15.5269 14.1526 16.8647 13.7765C17.8775 13.5101 18.3063 15.0157 17.2967 15.3173C15.9335 15.6213 14.6815 16.3773 13.3687 16.8173ZM31.0903 16.7213C29.7759 16.2941 28.5143 15.5781 27.1463 15.2813C26.1383 14.9901 26.5415 13.4781 27.5631 13.7357C28.9019 14.098 30.2022 14.59 31.4455 15.2045C31.6076 15.2844 31.7379 15.4169 31.8152 15.5803C31.8924 15.7437 31.912 15.9285 31.8708 16.1045C31.8297 16.2805 31.7301 16.4373 31.5883 16.5495C31.4466 16.6616 31.2711 16.7217 31.0903 16.7213ZM20.2175 14.7429C20.0132 14.7423 19.8168 14.6634 19.6687 14.5225C19.5207 14.3817 19.4322 14.1895 19.4213 13.9854C19.4105 13.7813 19.4781 13.5809 19.6104 13.4251C19.7427 13.2693 19.9296 13.1701 20.1327 13.1477C21.5145 12.998 22.9082 12.9926 24.2911 13.1317C25.3319 13.2573 25.1839 14.8053 24.1311 14.7237C22.8415 14.5893 21.5215 14.6093 20.2175 14.7429Z" fill="white"/>
<path d="M43.7039 5.20312C42.6479 5.20312 41.6503 5.53593 40.8207 6.16633C40.6207 6.31753 40.5039 6.55352 40.5039 6.80313V10.0031H5.30391C2.65671 10.0031 0.503906 12.1567 0.503906 14.8031V38.8031C0.503906 41.4511 2.65671 43.6031 5.30391 43.6031H43.7039C46.3511 43.6031 48.5039 41.4511 48.5039 38.8031V10.0031C48.5039 7.35672 46.3511 5.20312 43.7039 5.20312ZM43.7039 42.0031H5.30391C3.53911 42.0031 2.10391 40.5687 2.10391 38.8031V14.8031C2.10391 13.0383 3.53911 11.6031 5.30391 11.6031H40.5039V35.6031C40.4839 36.2447 41.2879 36.6439 41.7879 36.2407C42.339 35.8231 43.0125 35.599 43.7039 35.6031C47.9319 35.7359 47.9327 41.8703 43.7039 42.0031Z" fill="white"/>
<path d="M7.69922 16.4023C5.49362 16.4023 3.69922 18.1975 3.69922 20.4023C3.88722 25.6967 11.512 25.6951 11.6992 20.4023C11.6992 18.1975 9.90482 16.4023 7.69922 16.4023Z" fill="white"/>
<path d="M36.0139 6.86717L30.4139 4.46717C30.3063 4.42515 30.1917 4.4045 30.0763 4.40637C29.6531 4.40797 29.3003 4.78317 29.2987 5.20157V11.684C24.6435 12.7208 25.2851 19.5 30.0987 19.6024C34.9131 19.4984 35.5531 12.72 30.8987 11.684V10.5304L36.0139 8.33837C36.6499 8.09037 36.6499 7.11357 36.0139 6.86717ZM30.4139 27.6672L24.8139 25.2672C24.7058 25.225 24.5906 25.2043 24.4747 25.2064C24.0531 25.2088 23.7003 25.5832 23.6987 26.0016V32.484C19.0435 33.5208 19.6851 40.3 24.4987 40.4024C29.3131 40.2984 29.9531 33.52 25.2987 32.484V31.3304L30.4139 29.1384C31.0499 28.8904 31.0499 27.9144 30.4139 27.668V27.6672Z" fill="#F2BE22"/>
</g>
<defs>
<clipPath id="clip0_6006_9859">
<rect width="48" height="48" fill="white" transform="translate(0.5)"/>
</clipPath>
</defs>
</svg>
