<svg width="48" height="48" viewBox="0 0 48 48" fill="none" xmlns="http://www.w3.org/2000/svg">
<g clip-path="url(#clip0_6006_9883)">
<path d="M14.7567 42.7086L21.4455 26.5609L16.0741 24.3359L8.36768 42.9403C8.04302 43.7242 8.77755 44.5319 9.58858 44.2831L13.9584 42.9421C14.082 42.9034 14.2123 42.89 14.3412 42.9027L14.7567 42.7086Z" fill="#F2BE22"/>
<path d="M21.1581 26.4375L14.3398 42.8978C14.5063 42.9125 14.6664 42.9685 14.8057 43.0607C14.945 43.153 15.059 43.2787 15.1374 43.4262L17.279 47.4644C17.6765 48.2139 18.7671 48.1621 19.0918 47.3783L26.7983 28.7738L21.1581 26.4375Z" fill="#F2BE22"/>
<path d="M26.9972 26.3789L21.207 28.7774L28.9135 47.3819C29.2381 48.1657 30.3287 48.2175 30.7263 47.468L32.8679 43.4298C32.9321 43.3086 33.0204 43.202 33.1275 43.1164L33.6519 42.4537L26.9972 26.3789Z" fill="#F2BE22"/>
<path d="M39.6393 42.9404L31.9329 24.3359L26.3125 26.664L33.1283 43.1183C33.2558 43.0162 33.4062 42.9468 33.5666 42.9161C33.727 42.8854 33.8925 42.8943 34.0487 42.9421L38.4184 44.2831C39.2296 44.5321 39.9641 43.7243 39.6393 42.9404Z" fill="#F2BE22"/>
<path d="M25.4696 1.26199L25.4696 1.26196C24.6093 0.57936 23.392 0.579331 22.5316 1.26197C22.039 1.65283 21.4584 1.91753 20.8403 2.03309C20.2221 2.14865 19.5851 2.11157 18.9846 1.92508C17.9358 1.59942 16.8008 2.0391 16.2451 2.98638L15.5982 2.60691L16.2451 2.98638C15.9269 3.52878 15.4812 3.98533 14.9465 4.31637C14.4119 4.64741 13.8045 4.84294 13.1772 4.88599L25.4696 1.26199ZM25.4696 1.26199C25.9622 1.65282 26.5428 1.9175 27.1609 2.03305C27.779 2.14861 28.416 2.11154 29.0166 1.92508L29.0166 1.92507M25.4696 1.26199L29.0166 1.92507M29.0166 1.92507C30.0654 1.59935 31.2004 2.03906 31.7561 2.98638C32.0742 3.52878 32.52 3.98533 33.0546 4.31637C33.5893 4.64741 34.1967 4.84294 34.824 4.88599L34.824 4.88599M29.0166 1.92507L34.824 4.88599M34.824 4.88599C35.9197 4.96114 36.8192 5.78116 36.9952 6.86531C37.0959 7.48601 37.3467 8.07275 37.7256 8.57458C38.1046 9.0764 38.6003 9.47813 39.1698 9.74489C40.1643 10.2108 40.7068 11.3004 40.4793 12.3748C40.349 12.9899 40.3709 13.6276 40.5429 14.2325L41.2643 14.0272M34.824 4.88599L41.2643 14.0272M41.2643 14.0272L40.5429 14.2325C40.715 14.8373 41.0321 15.391 41.4668 15.8455L42.0088 15.3271L41.4668 15.8455C42.2258 16.6392 42.3381 17.8511 41.7378 18.7708C41.3941 19.2974 41.1841 19.8999 41.1261 20.5261C41.0681 21.1523 41.1638 21.7831 41.4049 22.3639C41.826 23.3782 41.4929 24.5489 40.6009 25.1897C40.0902 25.5565 39.6767 26.0425 39.3965 26.6054C39.1161 27.1683 38.9775 27.7911 38.9925 28.4198C39.0188 29.5177 38.2853 30.489 37.222 30.7643C36.6132 30.9219 36.0522 31.2257 35.5874 31.6493C35.1227 32.073 34.7684 32.6036 34.5553 33.1953L35.2609 33.4494M41.2643 14.0272L35.2609 33.4494M35.2609 33.4494L34.5553 33.1953C34.1832 34.2286 33.1483 34.8693 32.0575 34.7419L32.0574 34.7419M35.2609 33.4494L32.0574 34.7419M32.0574 34.7419C31.4328 34.6689 30.7999 34.7495 30.2135 34.9767C29.6271 35.2038 29.1051 35.5707 28.6926 36.0454L28.6926 36.0454C27.9724 36.8745 26.7759 37.0981 25.8048 36.5853L32.0574 34.7419ZM18.7423 36.5373L19.3085 36.0454C20.0288 36.8745 21.2252 37.0982 22.1963 36.5853C22.7524 36.2916 23.3717 36.1381 24.0005 36.1381C24.6294 36.1381 25.2487 36.2916 25.8047 36.5853L18.7423 36.5373ZM18.7423 36.5373L19.3085 36.0454C18.896 35.5707 18.374 35.2038 17.7876 34.9767C17.2012 34.7495 16.5682 34.6689 15.9436 34.7419L16.0307 35.4868M18.7423 36.5373L16.0307 35.4868M16.0307 35.4868L15.9436 34.7419C14.8528 34.8693 13.818 34.2286 13.4458 33.1953C13.2327 32.6036 12.8784 32.073 12.4137 31.6493L11.9566 32.1507L12.4137 31.6493C11.9489 31.2257 11.3878 30.9219 10.7791 30.7643L10.5946 31.4767L10.779 30.7643C9.71583 30.4891 8.98232 29.5177 9.00858 28.4198L9.00858 28.4198C9.0236 27.7911 8.88494 27.1683 8.60464 26.6054C8.32435 26.0425 7.91088 25.5565 7.40015 25.1896L6.96261 25.7988M16.0307 35.4868L6.96261 25.7988M6.96261 25.7988L7.40015 25.1896C6.50817 24.5489 6.1751 23.3783 6.59619 22.3639C6.83731 21.7831 6.93302 21.1523 6.875 20.5261C6.81697 19.9 6.60698 19.2974 6.26326 18.7708L6.96261 25.7988ZM6.53434 15.8454L6.53433 15.8455C5.77527 16.6392 5.66296 17.8511 6.26324 18.7708L6.53434 15.8454ZM6.53434 15.8454C6.96894 15.391 7.28605 14.8373 7.45815 14.2325C7.63024 13.6277 7.65212 12.99 7.52188 12.3748L7.52187 12.3748M6.53434 15.8454L7.52187 12.3748M7.52187 12.3748C7.29434 11.3003 7.83687 10.2107 8.83137 9.7449L8.83142 9.74488M7.52187 12.3748L8.83142 9.74488M8.83142 9.74488C9.40085 9.4781 9.89656 9.07636 10.2755 8.57455C10.6545 8.07274 10.9052 7.48602 11.006 6.86532L11.006 6.86526M8.83142 9.74488L11.006 6.86526M11.006 6.86526C11.1819 5.78124 12.0814 4.96123 13.1772 4.88599L11.006 6.86526Z" stroke="white" strokeWidth="1.5"/>
<path d="M32.4953 18.8003C32.4953 12.453 28.4005 7.06234 22.7086 5.125C15.7288 5.77637 10.2656 11.6503 10.2656 18.8003C10.2656 25.9503 15.7288 31.8243 22.7086 32.4756C28.4006 30.5383 32.4953 25.1477 32.4953 18.8003Z" fill="white"/>
<path d="M24.0044 5.07031C22.9751 5.06982 21.949 5.18466 20.9453 5.41269C27.0586 6.80319 31.6216 12.2713 31.6216 18.8056C31.6216 25.3399 27.0586 30.8081 20.9453 32.1986C21.949 32.4266 22.9751 32.5414 24.0044 32.5409C31.5902 32.5409 37.7397 26.3914 37.7397 18.8056C37.7397 11.2198 31.5902 5.07031 24.0044 5.07031Z" fill="white"/>
<path d="M29.1277 27.2652C29.652 27.6182 30.3313 27.1246 30.1577 26.5168L29.8731 25.5205C29.5682 26.0626 29.2269 26.5834 28.8516 27.0794L29.1277 27.2652ZM32.9281 15.5688L31.2278 15.5078C31.4384 16.3645 31.566 17.2395 31.6087 18.1206L33.3216 16.7797C33.8192 16.3902 33.5597 15.5915 32.9281 15.5688Z" fill="#E8AE4D"/>
<path d="M24.3821 24.0739L29.1227 27.2649C29.3091 27.3904 29.5151 27.4088 29.6953 27.3533C29.863 27.1254 30.0241 26.8926 30.1782 26.6553C30.1744 26.6083 30.1658 26.5619 30.1528 26.5166L28.5829 21.0219C28.5459 20.8923 28.5483 20.7545 28.59 20.6263C28.6317 20.4981 28.7106 20.3852 28.8168 20.3021L32.4372 17.4679C32.3779 16.8191 32.2746 16.175 32.1282 15.5402L27.2123 15.3638C27.0775 15.359 26.9473 15.3141 26.8382 15.2349C26.7292 15.1556 26.6462 15.0456 26.6 14.919L24.6402 9.55076C24.4235 8.95704 23.5838 8.95704 23.367 9.55076L21.4074 14.9188C21.3611 15.0454 21.2782 15.1554 21.1691 15.2347C21.0601 15.3139 20.9298 15.3588 20.7951 15.3636L15.0842 15.5685C14.4525 15.5912 14.1931 16.3897 14.6907 16.7794L19.1906 20.3019C19.2967 20.385 19.3757 20.4979 19.4173 20.6261C19.459 20.7544 19.4615 20.8921 19.4245 21.0217L17.8545 26.5164C17.6809 27.1242 18.3602 27.6177 18.8846 27.2648L23.6252 24.0738C23.7371 23.9985 23.8688 23.9584 24.0037 23.9584C24.1385 23.9584 24.2702 23.9986 24.3821 24.0739Z" fill="#F2BE22"/>
</g>
<defs>
<clipPath id="clip0_6006_9883">
<rect width="48" height="48" fill="white"/>
</clipPath>
</defs>
</svg>
