<svg width="49" height="48" viewBox="0 0 49 48" fill="none" xmlns="http://www.w3.org/2000/svg">
<g clip-path="url(#clip0_7610_9453)">
<path d="M38.9047 4.39844H11.7047C10.3815 4.39844 9.30469 5.47524 9.30469 6.79844V8.39844C9.30469 8.61061 9.38897 8.81409 9.539 8.96412C9.68903 9.11415 9.89251 9.19844 10.1047 9.19844H40.5047C40.7169 9.19844 40.9203 9.11415 41.0704 8.96412C41.2204 8.81409 41.3047 8.61061 41.3047 8.39844V6.79844C41.3047 5.47524 40.2279 4.39844 38.9047 4.39844Z" fill="#F2BE22"/>
<path d="M44.5 36.4016H4.5C2.2944 36.4016 0.5 34.6072 0.5 32.4016V16.4016C0.5 11.5496 4.448 7.60156 9.3 7.60156H39.7C44.552 7.60156 48.5 11.5496 48.5 16.4016V32.4016C48.5 34.6072 46.7056 36.4016 44.5 36.4016ZM9.3 9.20156C5.3304 9.20156 2.1 12.4312 2.1 16.4016V32.4016C2.1 33.7248 3.1768 34.8016 4.5 34.8016H44.5C45.8232 34.8016 46.9 33.7248 46.9 32.4016V16.4016C46.9 12.4312 43.6696 9.20156 39.7 9.20156H9.3Z" fill="white"/>
<path d="M37.3 36.4016C37.0878 36.4016 36.8843 36.3173 36.7343 36.1672C36.5843 36.0172 36.5 35.8137 36.5 35.6016V8.40156C36.5 8.18939 36.5843 7.98591 36.7343 7.83588C36.8843 7.68585 37.0878 7.60156 37.3 7.60156C37.5122 7.60156 37.7157 7.68585 37.8657 7.83588C38.0157 7.98591 38.1 8.18939 38.1 8.40156V35.6016C38.1 35.8137 38.0157 36.0172 37.8657 36.1672C37.7157 36.3173 37.5122 36.4016 37.3 36.4016Z" fill="white"/>
<path d="M47.6992 26.8016H37.2992C36.2504 26.7848 36.2456 25.2192 37.2992 25.2016H47.6992C48.7472 25.2176 48.7536 26.784 47.6992 26.8016ZM14.0992 11.6016H24.4992V23.6016H14.0992V11.6016ZM8.49922 11.6016C7.22618 11.6016 6.00528 12.1073 5.10511 13.0074C4.20493 13.9076 3.69922 15.1285 3.69922 16.4016V22.0016C3.69922 22.4259 3.86779 22.8329 4.16785 23.1329C4.46791 23.433 4.87487 23.6016 5.29922 23.6016H13.2992V11.6016H8.49922ZM33.2992 11.6016H25.2992V23.6016H33.2992C33.7236 23.6016 34.1305 23.433 34.4306 23.1329C34.7307 22.8329 34.8992 22.4259 34.8992 22.0016V13.2016C34.8992 12.7772 34.7307 12.3703 34.4306 12.0702C34.1305 11.7701 33.7236 11.6016 33.2992 11.6016ZM18.0992 35.6016C18.0992 37.0868 17.5092 38.5112 16.459 39.5614C15.4088 40.6116 13.9844 41.2016 12.4992 41.2016C5.07922 40.9272 5.08082 30.2752 12.4992 30.0016C13.9844 30.0016 15.4088 30.5916 16.459 31.6418C17.5092 32.692 18.0992 34.1164 18.0992 35.6016Z" fill="white"/>
<path d="M12.5016 42.0013C8.97276 42.0013 6.10156 39.1301 6.10156 35.6013C6.45356 27.1109 18.5512 27.1133 18.9016 35.6013C18.9016 39.1301 16.0304 42.0013 12.5016 42.0013ZM12.5016 30.8013C9.85436 30.8013 7.70156 32.9541 7.70156 35.6013C7.92636 41.9541 17.0776 41.9533 17.3016 35.6013C17.3016 32.9541 15.1488 30.8013 12.5016 30.8013ZM41.3016 35.6013C41.3016 37.0865 40.7116 38.5109 39.6614 39.5611C38.6112 40.6113 37.1868 41.2013 35.7016 41.2013C28.2816 40.9269 28.2832 30.2749 35.7016 30.0013C37.1868 30.0013 38.6112 30.5913 39.6614 31.6415C40.7116 32.6917 41.3016 34.1161 41.3016 35.6013Z" fill="white"/>
<path d="M35.7006 42.0063C32.1718 42.0063 29.3006 39.135 29.3006 35.6063C29.6526 27.1159 41.7502 27.1182 42.1006 35.6063C42.1006 39.135 39.2294 42.0063 35.7006 42.0063ZM35.7006 30.8062C33.0534 30.8062 30.9006 32.9591 30.9006 35.6063C31.1254 41.959 40.2766 41.9583 40.5006 35.6063C40.5006 32.9591 38.3478 30.8062 35.7006 30.8062ZM22.1006 43.6063H2.10061C1.05581 43.5903 1.04381 42.0247 2.10061 42.0063H22.1006C23.1454 42.0223 23.1574 43.5878 22.1006 43.6063ZM40.5006 43.6063H29.3006C28.2526 43.5903 28.2462 42.0238 29.3006 42.0063H40.5006C41.5486 42.0223 41.555 43.5886 40.5006 43.6063ZM45.3006 43.6063H43.7006C42.6494 43.5886 42.6486 42.0238 43.7006 42.0063H45.3006C46.3518 42.0238 46.3526 43.5886 45.3006 43.6063ZM47.7006 16.4062V26.0063H37.3006V8.40625H39.7006C44.1166 8.40625 47.7006 11.9903 47.7006 16.4062Z" fill="white"/>
</g>
<defs>
<clipPath id="clip0_7610_9453">
<rect width="48" height="48" fill="white" transform="translate(0.5)"/>
</clipPath>
</defs>
</svg>
